<svg width="128" height="128" viewBox="0 0 128 128" fill="none" xmlns="http://www.w3.org/2000/svg" role="img" aria-labelledby="logoTitle logoDesc">
  <title id="logoTitle">Logo GiziCare</title>
  <desc id="logoDesc">Logo GiziCare memadukan piring gizi seimbang, daun nutrisi, kurva pertumbuhan, dan hati kepedulian.</desc>
  <rect x="10" y="10" width="108" height="108" rx="28" fill="url(#bg)"/>
  <path d="M25 96C39 106.5 59.4 111.1 78.4 105.2C97.4 99.3 109.8 84 110.6 64.9" stroke="#DDF7E8" stroke-width="5" stroke-linecap="round" opacity=".72"/>
  <circle cx="64" cy="64" r="34" fill="#FFFFFF"/>
  <circle cx="64" cy="64" r="26" fill="#F7FBF8"/>
  <path d="M64 38A26 26 0 0 1 90 64H64V38Z" fill="#0F766E"/>
  <path d="M90 64A26 26 0 0 1 64 90V64H90Z" fill="#B7E4C7"/>
  <path d="M64 90A26 26 0 0 1 38 64H64V90Z" fill="#F59E0B"/>
  <path d="M38 64A26 26 0 0 1 64 38V64H38Z" fill="#E11D48"/>
  <circle cx="64" cy="64" r="9" fill="#FFFFFF"/>
  <path d="M38.5 76.4C47.2 68 56.3 62.3 67.1 59.5C76 57.2 84.3 57.4 91.7 59.7" stroke="#0B4A2D" stroke-width="6" stroke-linecap="round"/>
  <path d="M37.8 42.2C47.4 33.8 60.1 31.5 73.2 35.7C66.6 50.8 54.4 58.8 41.8 55.5C38.1 54.5 35 52.9 32.4 50.8C33.2 47.4 35 44.5 37.8 42.2Z" fill="#E8F8EE"/>
  <path d="M38 53.3C45.5 46.9 54.4 42.8 66.1 39.8" stroke="#0B4A2D" stroke-width="5" stroke-linecap="round"/>
  <path d="M91.2 79.1C95.2 75.6 101.7 78.5 101.7 84C101.7 92 91.2 97.7 91.2 97.7S80.7 92 80.7 84C80.7 78.5 87.2 75.6 91.2 79.1Z" fill="#FFFFFF"/>
  <path d="M91.2 79.1C95.2 75.6 101.7 78.5 101.7 84C101.7 92 91.2 97.7 91.2 97.7S80.7 92 80.7 84C80.7 78.5 87.2 75.6 91.2 79.1Z" stroke="#E11D48" stroke-width="4" stroke-linejoin="round"/>
  <path d="M27 96.5C43.7 79.4 63 72.4 89.5 74.8" stroke="#FFFFFF" stroke-width="5" stroke-linecap="round" opacity=".92"/>
  <defs>
    <linearGradient id="bg" x1="19" y1="15" x2="111" y2="114" gradientUnits="userSpaceOnUse">
      <stop stop-color="#0B4A2D"/>
      <stop offset=".56" stop-color="#0F766E"/>
      <stop offset="1" stop-color="#1A9A5A"/>
    </linearGradient>
  </defs>
</svg>
